Coordinates
version=1
nRows=9
nColumns=24
inDegrees=yes

Units are S.I. units (second, meters, Newtons, ...)
Angles are in degrees.

endheader
time	pelvis_tilt	pelvis_list	pelvis_rotation	pelvis_tx	pelvis_ty	pelvis_tz	hip_flexion_r	hip_adduction_r	hip_rotation_r	knee_angle_r	ankle_angle_r	subtalar_angle_r	mtp_angle_r	hip_flexion_l	hip_adduction_l	hip_rotation_l	knee_angle_l	ankle_angle_l	subtalar_angle_l	mtp_angle_l	lumbar_extension	lumbar_bending	lumbar_rotation
      4.38500000	    -10.73228693	      4.82272829	     -4.10499018	     -0.92523422	     -0.01844831	     -0.66210396	     15.60616951	     -6.37486696	     -1.68019808	    -58.34659378	    -21.47579638	    -10.44240686	      6.19324575	     26.53057152	      6.16323357	    -15.28575590	    -22.26187735	      2.16067285	    -11.14988817	      3.69000961	      8.10958883	     -4.70633289	      1.07197729
      4.39000000	    -10.84031532	      4.76890114	     -4.01762670	     -0.92017394	     -0.01789420	     -0.66277972	     16.61694961	     -6.30084485	     -1.65205450	    -59.47224009	    -20.95572155	    -11.08062163	      6.01129224	     26.17135573	      6.25689142	    -15.11976401	    -22.01920039	      2.38051825	    -11.13829788	      3.56813279	      8.15057015	     -4.64277377	      0.85248399
      4.39500000	    -10.84005059	      4.73002860	     -3.91820463	     -0.91503588	     -0.01719853	     -0.66349799	     17.47701631	     -6.27193837	     -1.65487403	    -60.48906411	    -20.34830256	    -11.63485404	      5.99298493	     25.65298445	      6.38992640	    -14.93185458	    -21.70539840	      2.60598904	    -11.07444073	      3.54300381	      8.09036442	     -4.59943746	      0.61855429
      4.40000000	    -11.07013388	      4.63416767	     -3.83371828	     -0.91009976	     -0.01674593	     -0.66416878	     18.62678520	     -6.12740191	     -1.62743874	    -61.50440387	    -19.62482411	    -12.19684309	      5.46822419	     25.43310282	      6.43234202	    -14.70597732	    -21.46869340	      2.80483995	    -11.11766484	      3.23398235	      8.25568084	     -4.47462757	      0.40632261
      4.40500000	    -11.15774040	      4.57452049	     -3.72721561	     -0.90505704	     -0.01613386	     -0.66488704	     19.58405314	     -6.06678049	     -1.66898013	    -62.42107529	    -18.79074647	    -12.67974816	      4.81153802	     25.02215510	      6.53628794	    -14.52272598	    -21.17179627	      3.03762462	    -11.08074185	      2.89313256	      8.28403088	     -4.39843479	      0.17579295
      4.41000000	    -11.11214400	      4.49335739	     -3.63338120	     -0.89996895	     -0.01532580	     -0.66560602	     20.34391030	     -5.99221124	     -1.69520853	    -63.16898788	    -18.04180067	    -13.17283417	      4.86021621	     24.43143346	      6.62026063	    -14.35604748	    -20.81441873	      3.21913525	    -10.98498217	      2.90028624	      8.17671051	     -4.30240471	     -0.02797710
      4.41500000	    -11.29593163	      4.41745353	     -3.50748646	     -0.89498147	     -0.01482427	     -0.66637716	     21.39354081	     -5.91628550	     -1.76983838	    -63.94344933	    -17.23044241	    -13.66274120	      4.18034782	     24.12313870	      6.70803848	    -14.14935692	    -20.49823598	      3.37921837	    -11.02849165	      2.65670730	      8.30827156	     -4.19609302	     -0.25771267
      4.42000000	    -11.25144372	      4.34612143	     -3.40755304	     -0.88985022	     -0.01399443	     -0.66709097	     22.12139793	     -5.84899505	     -1.79653068	    -64.52514553	    -16.49855322	    -14.12189711	      4.19796302	     23.50303274	      6.80082848	    -13.99745857	    -20.08442266	      3.54285356	    -10.89796808	      2.66463453	      8.21713408	     -4.10951875	     -0.45722794
      4.42500000	    -11.23748329	      4.28477169	     -3.29821191	     -0.88472986	     -0.01322346	     -0.66783786	     22.87933769	     -5.80480164	     -1.85677703	    -65.04729095	    -15.79554727	    -14.59489003	      4.13626249	     22.91714191	      6.90433703	    -13.85421115	    -19.66681075	      3.68664328	    -10.79023960	      2.65676929	      8.16435032	     -4.02436837	     -0.66658805
